<svg style="position: absolute; width: 0; height: 0;" width="0" height="0" version="1.1" xmlns="http://www.w3.org/2000/svg" xmlns:xlink="http://www.w3.org/1999/xlink">
	<defs>
		<symbol id="icon-instagram" viewBox="0 0 20 20">
			<path d="M17 1h-14c-1.1 0-2 0.9-2 2v14c0 1.101 0.9 2 2 2h14c1.1 0 2-0.899 2-2v-14c0-1.1-0.9-2-2-2zM9.984 15.523c3.059 0 5.538-2.481 5.538-5.539 0-0.338-0.043-0.664-0.103-0.984h1.581v7.216c0 0.382-0.31 0.69-0.693 0.69h-12.614c-0.383 0-0.693-0.308-0.693-0.69v-7.216h1.549c-0.061 0.32-0.104 0.646-0.104 0.984 0 3.059 2.481 5.539 5.539 5.539zM6.523 9.984c0-1.912 1.55-3.461 3.462-3.461s3.462 1.549 3.462 3.461-1.551 3.462-3.462 3.462c-1.913 0-3.462-1.55-3.462-3.462zM16.307 6h-1.615c-0.382 0-0.692-0.312-0.692-0.692v-1.617c0-0.382 0.31-0.691 0.691-0.691h1.615c0.384 0 0.694 0.309 0.694 0.691v1.616c0 0.381-0.31 0.693-0.693 0.693z"></path>
		</symbol>
		<symbol id="icon-chevron-left1" viewBox="0 0 20 20">
			<path d="M12.452 4.516c0.446 0.436 0.481 1.043 0 1.576l-3.747 3.908 3.747 3.908c0.481 0.533 0.446 1.141 0 1.574-0.445 0.436-1.197 0.408-1.615 0-0.418-0.406-4.502-4.695-4.502-4.695-0.223-0.217-0.335-0.502-0.335-0.787s0.112-0.57 0.335-0.789c0 0 4.084-4.287 4.502-4.695s1.17-0.436 1.615 0z"></path>
		</symbol>
		<symbol id="icon-view-show" viewBox="0 0 20 20">
			<path d="M0.2 10c1.86-3.592 5.548-6.004 9.8-6.004s7.94 2.412 9.771 5.943l0.029 0.061c-1.86 3.592-5.548 6.004-9.8 6.004s-7.94-2.412-9.771-5.943l-0.029-0.061zM10 14c2.209 0 4-1.791 4-4s-1.791-4-4-4v0c-2.209 0-4 1.791-4 4s1.791 4 4 4v0zM10 12c-1.105 0-2-0.895-2-2s0.895-2 2-2v0c1.105 0 2 0.895 2 2s-0.895 2-2 2v0z"></path>
		</symbol>
		<symbol id="icon-chevron-right" viewBox="0 0 20 20">
			<path d="M9.163 4.516c0.418 0.408 4.502 4.695 4.502 4.695 0.223 0.219 0.335 0.504 0.335 0.789s-0.112 0.57-0.335 0.787c0 0-4.084 4.289-4.502 4.695-0.418 0.408-1.17 0.436-1.615 0-0.446-0.434-0.481-1.041 0-1.574l3.747-3.908-3.747-3.908c-0.481-0.533-0.446-1.141 0-1.576s1.197-0.409 1.615 0z"></path>
		</symbol>
		<symbol id="icon-access_time" viewBox="0 0 24 24">
			<path d="M12.516 6.984v5.25l4.5 2.672-0.75 1.266-5.25-3.188v-6h1.5zM12 20.016q3.281 0 5.648-2.367t2.367-5.648-2.367-5.648-5.648-2.367-5.648 2.367-2.367 5.648 2.367 5.648 5.648 2.367zM12 2.016q4.125 0 7.055 2.93t2.93 7.055-2.93 7.055-7.055 2.93-7.055-2.93-2.93-7.055 2.93-7.055 7.055-2.93z"></path>
		</symbol>
		<symbol id="icon-tool" viewBox="0 0 32 32">
			<path d="M1.239 0v7.248l10.508 11.258v8.586l8.506 4.907v-13.494l10.508-11.258v-7.248h-29.521zM17.751 17.52v10.148l-3.503-2.021v-8.128l-9.347-10.015h22.196l-9.347 10.015zM28.259 5.004h-24.518v-2.502h24.518v2.502z"></path>
		</symbol>
		<symbol id="icon-s_time" viewBox="0 0 24 24">
			<path d="M12.516 6.984v5.25l4.5 2.672-0.75 1.266-5.25-3.188v-6h1.5zM12 20.016q3.281 0 5.648-2.367t2.367-5.648-2.367-5.648-5.648-2.367-5.648 2.367-2.367 5.648 2.367 5.648 5.648 2.367zM12 2.016q4.125 0 7.055 2.93t2.93 7.055-2.93 7.055-7.055 2.93-7.055-2.93-2.93-7.055 2.93-7.055 7.055-2.93z"></path>
		</symbol>
		<symbol id="icon-man" viewBox="0 0 21 32">
			<path  d="M10.435-0.135c3.477 0 6.294 2.88 6.294 6.433s-2.816 6.435-6.294 6.435-6.294-2.883-6.294-6.435 2.816-6.433 6.294-6.433zM19.889 22.682v9.453h-18.908v-9.453c0-3.768 2.987-6.82 6.671-6.82h5.565c3.684 0 6.671 3.053 6.671 6.82z"></path>
			<path d="M10.435-0.135c3.477 0 6.294 2.88 6.294 6.433s-2.816 6.435-6.294 6.435-6.294-2.883-6.294-6.435 2.816-6.433 6.294-6.433zM19.889 22.682v9.453h-18.908v-9.453c0-3.768 2.987-6.82 6.671-6.82h5.565c3.684 0 6.671 3.053 6.671 6.82z"></path>
		</symbol>
		<symbol id="icon-Forma_1" viewBox="0 0 32 32">
			<path d="M25.056 15.272l-11.93 9.715-11.93-9.715zM26.25 16.717v15.283h-26.25v-15.283l13.126 10.687zM31.406 9.818l-4.429 3.581h-16.207l-4.426-3.581 12.53-9.818zM7.791 13.4h-2.041v-1.653zM32 11.747v15.221h-3.875v-12.085z"></path>
		</symbol>
		<symbol id="icon-tel" viewBox="0 0 18 32">
			<path d="M17.838 3.015v25.97c0 1.221-0.991 2.212-2.212 2.212h-12.79c-1.221 0-2.212-0.99-2.212-2.212v-25.969c0-1.223 0.988-2.215 2.212-2.215h12.79c1.222 0 2.212 0.992 2.212 2.215zM5.788 2.678c0 0.295 0.126 0.534 0.287 0.534h6.314c0.16 0 0.288-0.239 0.288-0.534 0-0.294-0.128-0.532-0.287-0.532h-6.315c-0.16 0-0.288 0.238-0.288 0.532zM10.641 27.599c0-0.012 0.001-0.026 0.001-0.040 0-0.78-0.632-1.412-1.412-1.412s-1.412 0.632-1.412 1.412c0 0.015 0 0.030 0.001 0.045l-0-0.002c0.024 0.761 0.646 1.369 1.411 1.369s1.389-0.609 1.411-1.369l0-0.002zM16.18 4.538h-13.897v19.634h13.897z"></path>
		</symbol>
		<symbol id="icon-scr" viewBox="0 0 35 32">
			<path  d="M2.536 29.4c1.61 1.653 3.752 2.602 5.877 2.602 1.787 0 3.427-0.672 4.616-1.894l13.907-14.283c0.864-0.877 1.288-2.096 1.197-3.43-0.179-2.605-2.474-4.96-5.010-5.146-0.102-0.008-0.222-0.013-0.342-0.013h-0c-1.162 0-2.23 0.445-3.005 1.248l-12.16 12.491c-0.392 0.402-0.592 0.971-0.55 1.565 0.040 0.557 0.285 1.091 0.688 1.504 0.409 0.43 0.981 0.701 1.617 0.712l0.002 0c0.525 0 1.011-0.203 1.368-0.57l12.168-12.498c0.063-0.064 0.151-0.104 0.248-0.104 0.006 0 0.012 0 0.018 0l-0.001-0c0.006-0 0.013-0 0.020-0s0.014 0 0.021 0.001l-0.001-0c0.32 0.026 0.672 0.389 0.696 0.72 0.005 0.086-0.005 0.213-0.094 0.302l-13.914 14.288c-0.468 0.47-1.116 0.76-1.832 0.76-0.016 0-0.033-0-0.049-0l0.002 0c-0.944 0-1.904-0.432-2.637-1.182-0.637-0.64-1.057-1.496-1.14-2.449l-0.001-0.015c-0.061-0.856 0.198-1.627 0.73-2.173l15.645-16.069c0.891-0.917 2.136-1.421 3.504-1.421 1.712 0 3.446 0.776 4.763 2.128 2.469 2.534 2.776 6.344 0.688 8.49l-12.17 12.498c-0.39 0.402-0.59 0.971-0.549 1.565 0.040 0.557 0.285 1.091 0.688 1.504 0.409 0.43 0.981 0.701 1.617 0.712l0.002 0c0.525 0 1.011-0.203 1.368-0.57l12.168-12.499c3.662-3.76 3.232-10.323-0.962-14.629-2.195-2.253-5.112-3.546-8.003-3.546v0c-2.421 0-4.637 0.909-6.24 2.557l-15.65 16.069c-1.322 1.36-1.97 3.242-1.824 5.301 0.144 2.016 1.037 3.96 2.512 5.475z"></path>
		</symbol>
		<symbol id="icon-facebook" viewBox="0 0 32 32">
			<path d="M19 6h5v-6h-5c-3.86 0-7 3.14-7 7v3h-4v6h4v16h6v-16h5l1-6h-6v-3c0-0.542 0.458-1 1-1z"></path>
		</symbol>
		<symbol id="icon-paper-plane" viewBox="0 0 28 28">
			<path d="M27.563 0.172c0.328 0.234 0.484 0.609 0.422 1l-4 24c-0.047 0.297-0.234 0.547-0.5 0.703-0.141 0.078-0.313 0.125-0.484 0.125-0.125 0-0.25-0.031-0.375-0.078l-7.078-2.891-3.781 4.609c-0.187 0.234-0.469 0.359-0.766 0.359-0.109 0-0.234-0.016-0.344-0.063-0.391-0.141-0.656-0.516-0.656-0.938v-5.453l13.5-16.547-16.703 14.453-6.172-2.531c-0.359-0.141-0.594-0.469-0.625-0.859-0.016-0.375 0.172-0.734 0.5-0.922l26-15c0.156-0.094 0.328-0.141 0.5-0.141 0.203 0 0.406 0.063 0.562 0.172z"></path>
		</symbol>
		<symbol id="icon-youtube" viewBox="0 0 20 20">
			<path d="M10 2.3c-9.828 0-10 0.874-10 7.7s0.172 7.7 10 7.7 10-0.874 10-7.7-0.172-7.7-10-7.7zM13.205 10.334l-4.49 2.096c-0.393 0.182-0.715-0.022-0.715-0.456v-3.948c0-0.433 0.322-0.638 0.715-0.456l4.49 2.096c0.393 0.184 0.393 0.484 0 0.668z"></path>
		</symbol>
		<symbol id="icon-tick" viewBox="0 0 32 32">
			<title>tick</title>
			<path fill="#274d1e" style="fill: var(--color1, #274d1e)" d="M31.429 4.717c-0.763-0.763-1.997-0.763-2.76-0l-18.427 18.427-6.913-6.913c-0.763-0.763-1.997-0.763-2.76-0-0.761 0.761-0.761 1.999 0 2.76l8.293 8.293c0.762 0.762 1.997 0.762 2.76 0l19.806-19.807c0.761-0.761 0.761-1.999 0-2.76z"></path>
			<path fill="#274d1e" style="fill: var(--color1, #274d1e)" d="M31.429 4.717c-0.763-0.763-1.997-0.763-2.76-0l-13.45 13.45v5.519l16.21-16.21c0.761-0.761 0.761-1.999 0-2.76z"></path>
		</symbol>
		<symbol id="icon-arrow-circle-right" viewBox="0 0 24 28">
			<title>arrow-circle-right</title>
			<path d="M20.078 14c0-0.266-0.094-0.516-0.281-0.703l-7.078-7.078c-0.187-0.187-0.438-0.281-0.703-0.281s-0.516 0.094-0.703 0.281l-1.422 1.422c-0.187 0.187-0.281 0.438-0.281 0.703s0.094 0.516 0.281 0.703l2.953 2.953h-7.844c-0.547 0-1 0.453-1 1v2c0 0.547 0.453 1 1 1h7.844l-2.953 2.953c-0.187 0.187-0.297 0.438-0.297 0.703s0.109 0.516 0.297 0.703l1.422 1.422c0.187 0.187 0.438 0.281 0.703 0.281s0.516-0.094 0.703-0.281l7.078-7.078c0.187-0.187 0.281-0.438 0.281-0.703zM24 14c0 6.625-5.375 12-12 12s-12-5.375-12-12 5.375-12 12-12 12 5.375 12 12z"></path>
		</symbol>
		<symbol id="icon-arrow_right" viewBox="0 0 24 24">
			<title>arrow_right</title>
			<path d="M9.984 17.016v-10.031l5.016 5.016z"></path>
		</symbol>
		<symbol id="icon-double_arrow" viewBox="0 0 24 24">
			<title>double_arrow</title>
			<path d="M8.484 5.016l5.016 6.984-5.016 6.984h-4.5l5.016-6.984-5.016-6.984h4.5zM15.516 5.016l4.969 6.984-4.969 6.984h-4.5l4.969-6.984-4.969-6.984h4.5z"></path>
		</symbol>
		<symbol id="icon-circle-right" viewBox="0 0 32 32">
			<title>circle-right</title>
			<path d="M16 0c-8.837 0-16 7.163-16 16s7.163 16 16 16 16-7.163 16-16-7.163-16-16-16zM16 29c-7.18 0-13-5.82-13-13s5.82-13 13-13 13 5.82 13 13-5.82 13-13 13z"></path>
			<path d="M11.086 22.086l2.829 2.829 8.914-8.914-8.914-8.914-2.828 2.828 6.086 6.086z"></path>
		</symbol>
		<symbol id="icon-user-2" viewBox="0 0 32 32">
			<title>user-2</title>
			<path fill="#ffbb85" style="fill: var(--color1, #ffbb85)" d="M23.48 7.707c0 2.118-0.76 3.951-2.258 5.45s-3.332 2.258-5.45 2.258h-0.004c-2.115-0.001-3.947-0.76-5.446-2.258s-2.258-3.332-2.258-5.45c0-2.117 0.759-3.951 2.258-5.449s3.33-2.257 5.446-2.258h0.004c2.117 0 3.951 0.76 5.45 2.258s2.258 3.332 2.258 5.449z"></path>
			<path fill="#6aa9ff" style="fill: var(--color2, #6aa9ff)" d="M29.323 26.497c0 1.671-0.532 3.024-1.578 4.020-1.035 0.985-2.403 1.483-4.067 1.483h-15.408c-1.664 0-3.032-0.499-4.066-1.483-1.048-0.997-1.578-2.35-1.578-4.020 0-0.643 0.021-1.278 0.064-1.89 0.043-0.625 0.131-1.305 0.26-2.023 0.13-0.723 0.297-1.407 0.497-2.032 0.208-0.647 0.488-1.285 0.836-1.896 0.361-0.635 0.785-1.187 1.26-1.642 0.498-0.476 1.107-0.859 1.811-1.138 0.701-0.277 1.479-0.418 2.311-0.418 0.326 0 0.643 0.134 1.252 0.531 0.381 0.249 0.821 0.532 1.306 0.842 0.419 0.267 0.986 0.518 1.688 0.744 0.616 0.199 1.242 0.311 1.86 0.33 0.068 0.002 0.136 0.004 0.204 0.004 0.687 0 1.381-0.113 2.065-0.334 0.701-0.226 1.27-0.477 1.688-0.744 0.49-0.313 0.93-0.596 1.305-0.841 0.61-0.398 0.926-0.531 1.253-0.531 0.831 0 1.609 0.141 2.311 0.418 0.704 0.279 1.313 0.662 1.81 1.138 0.476 0.455 0.9 1.008 1.26 1.642 0.348 0.612 0.629 1.25 0.836 1.896 0.2 0.626 0.368 1.31 0.498 2.033 0.128 0.718 0.216 1.398 0.259 2.022 0.043 0.609 0.064 1.245 0.065 1.89z"></path>
			<path fill="#f5a86c" style="fill: var(--color3, #f5a86c)" d="M15.772 15.414h-0.004v-15.414h0.004c2.117 0 3.951 0.76 5.45 2.258s2.258 3.332 2.258 5.449c0 2.118-0.76 3.951-2.258 5.45s-3.332 2.258-5.45 2.258z"></path>
			<path fill="#2682ff" style="fill: var(--color4, #2682ff)" d="M29.323 26.497c0 1.671-0.532 3.024-1.578 4.020-1.035 0.985-2.403 1.483-4.067 1.483h-7.909v-14.096c0.068 0.002 0.136 0.004 0.204 0.004 0.687 0 1.381-0.113 2.065-0.334 0.701-0.226 1.27-0.477 1.688-0.744 0.49-0.313 0.93-0.596 1.305-0.841 0.61-0.398 0.926-0.531 1.253-0.531 0.831 0 1.609 0.141 2.311 0.418 0.704 0.279 1.313 0.662 1.81 1.138 0.476 0.455 0.9 1.008 1.26 1.642 0.348 0.612 0.629 1.25 0.836 1.896 0.2 0.626 0.368 1.31 0.498 2.033 0.128 0.718 0.216 1.398 0.259 2.022 0.043 0.609 0.064 1.245 0.065 1.89z"></path>
		</symbol>

		<symbol id="icon_question" viewBox="0 0 20 20">
			<title>question</title>
			<path d="M10 20c-5.523 0-10-4.477-10-10s4.477-10 10-10v0c5.523 0 10 4.477 10 10s-4.477 10-10 10v0zM12 7c0 0.28-0.21 0.8-0.42 1l-1.58 1.58c-0.57 0.58-1 1.6-1 2.42v1h2v-1c0-0.29 0.21-0.8 0.42-1l1.58-1.58c0.57-0.58 1-1.6 1-2.42 0-2.209-1.791-4-4-4s-4 1.791-4 4v0h2c0-1.105 0.895-2 2-2s2 0.895 2 2v0zM9 15v2h2v-2h-2z"></path>
		</symbol>
		<symbol id="icon_headphones" viewBox="0 0 32 32">
			<title>headphones</title>
			<path d="M9 18h-2v14h2c0.55 0 1-0.45 1-1v-12c0-0.55-0.45-1-1-1z"></path>
			<path d="M23 18c-0.55 0-1 0.45-1 1v12c0 0.55 0.45 1 1 1h2v-14h-2z"></path>
			<path d="M32 16c0-8.837-7.163-16-16-16s-16 7.163-16 16c0 1.919 0.338 3.759 0.958 5.464-0.609 1.038-0.958 2.246-0.958 3.536 0 3.526 2.608 6.443 6 6.929v-13.857c-0.997 0.143-1.927 0.495-2.742 1.012-0.168-0.835-0.258-1.699-0.258-2.584 0-7.18 5.82-13 13-13s13 5.82 13 13c0 0.885-0.088 1.749-0.257 2.584-0.816-0.517-1.745-0.87-2.743-1.013v13.858c3.392-0.485 6-3.402 6-6.929 0-1.29-0.349-2.498-0.958-3.536 0.62-1.705 0.958-3.545 0.958-5.465z"></path>
		</symbol>
		<symbol id="icon-zoom-in" viewBox="0 0 32 32">
			<title>zoom-in</title>
			<path d="M31.008 27.231l-7.58-6.447c-0.784-0.705-1.622-1.029-2.299-0.998 1.789-2.096 2.87-4.815 2.87-7.787 0-6.627-5.373-12-12-12s-12 5.373-12 12 5.373 12 12 12c2.972 0 5.691-1.081 7.787-2.87-0.031 0.677 0.293 1.515 0.998 2.299l6.447 7.58c1.104 1.226 2.907 1.33 4.007 0.23s0.997-2.903-0.23-4.007zM12 20c-4.418 0-8-3.582-8-8s3.582-8 8-8 8 3.582 8 8-3.582 8-8 8zM14 6h-4v4h-4v4h4v4h4v-4h4v-4h-4z"></path>
		</symbol>
		<symbol id="icon_mail_custom" width="58px" height="38px" viewBox="0 0 580 380">
			<title>mail</title>
			<path d="M260 370 c-8 -5 -61 -10 -118 -10 -147 0 -142 5 -142 -148 0 -86 4 -132 12 -140 17 -17 369 -17 386 0 9 9 22 3 55 -30 23 -23 50 -42 59 -42 10 0 28 15 42 33 33 44 35 115 5 172 -29 55 -105 131 -155 155 -43 21 -119 26 -144 10z m123 -36 c58 -30 108 -76 137 -128 33 -57 38 -102 14 -148 l-16 -30 -39 38 c-37 36 -38 38 -19 51 35 25 26 70 -24 119 -48 49 -84 56 -115 25 -19 -19 -20 -18 -56 19 l-37 38 28 16 c38 20 87 20 127 0z m-183 -27 c0 -18 82 -97 101 -97 9 0 24 9 34 20 34 38 45 26 45 -49 l0 -70 -79 55 c-44 29 -88 54 -98 54 -11 0 -52 -23 -91 -50 -39 -28 -74 -50 -77 -50 -3 0 -5 45 -5 100 l0 100 85 0 c63 0 85 -3 85 -13z m250 -142 c0 -6 -9 -20 -20 -30 -20 -18 -20 -17 -20 36 l1 54 19 -24 c11 -13 20 -29 20 -36z m-168 -25 l71 -50 -148 0 c-82 0 -145 3 -142 6 13 14 132 93 140 93 4 1 40 -21 79 -49z"/>
		</symbol>
		<symbol id="icon_loc_custom" width="52px" height="42px" viewBox="0 0 520 420">
			<title>location</title>
			<path d="M0 401 c0 -37 32 -58 108 -70 80 -12 78 -13 189 54 l58 35 -177 0 c-168 0 -178 -1 -178 -19z"/>
			<path d="M338 387 c-63 -35 -73 -57 -35 -81 20 -12 156 -41 162 -34 9 12 55 123 55 134 0 11 -16 14 -62 13 -51 0 -74 -6 -120 -32z"/>
			<path d="M30 326 c0 -15 31 -66 40 -66 20 0 80 36 80 48 0 6 -10 12 -22 12 -13 0 -40 3 -60 6 -21 4 -38 4 -38 0z"/>
			<path d="M241 307 c-5 -13 -29 -47 -54 -76 -52 -61 -64 -96 -47 -146 37 -112 194 -115 240 -5 19 45 5 90 -46 150 -25 30 -50 64 -55 77 -11 29 -27 29 -38 0z m43 -139 c46 -20 46 -76 0 -97 -19 -8 -30 -8 -47 0 -44 24 -48 49 -12 84 28 29 26 29 59 13z"/>
			<path d="M148 277 c-65 -36 -75 -56 -25 -49 29 4 97 55 97 74 0 13 -12 9 -72 -25z"/>
			<path d="M330 272 c0 -35 95 -57 119 -28 9 11 0 15 -46 25 -67 13 -73 13 -73 3z"/>
		</symbol>
		<symbol id="icon-like" viewBox="0 0 32 32">
			<title>like</title>
			<path d="M29.164 10.472c-1.25-0.328-4.189-0.324-8.488-0.438 0.203-0.938 0.25-1.784 0.25-3.286 0-3.588-2.614-6.748-4.926-6.748-1.633 0-2.979 1.335-3 2.977-0.022 2.014-0.645 5.492-4 7.256-0.246 0.13-0.95 0.477-1.053 0.522l0.053 0.045c-0.525-0.453-1.253-0.8-2-0.8h-3c-1.654 0-3 1.346-3 3v16c0 1.654 1.346 3 3 3h3c1.19 0 2.186-0.719 2.668-1.727 0.012 0.004 0.033 0.010 0.047 0.012 0.066 0.018 0.144 0.037 0.239 0.062 0.018 0.005 0.027 0.007 0.046 0.012 0.576 0.143 1.685 0.408 4.055 0.953 0.508 0.116 3.192 0.688 5.972 0.688h5.467c1.666 0 2.867-0.641 3.582-1.928 0.010-0.020 0.24-0.469 0.428-1.076 0.141-0.457 0.193-1.104 0.023-1.76 1.074-0.738 1.42-1.854 1.645-2.58 0.377-1.191 0.264-2.086 0.002-2.727 0.604-0.57 1.119-1.439 1.336-2.766 0.135-0.822-0.010-1.668-0.389-2.372 0.566-0.636 0.824-1.436 0.854-2.176l0.012-0.209c0.007-0.131 0.013-0.212 0.013-0.5 0-1.263-0.875-2.874-2.836-3.434zM7 29c0 0.553-0.447 1-1 1h-3c-0.553 0-1-0.447-1-1v-16c0-0.553 0.447-1 1-1h3c0.553 0 1 0.447 1 1v16zM29.977 14.535c-0.020 0.494-0.227 1.465-1.977 1.465-1.5 0-2 0-2 0-0.277 0-0.5 0.224-0.5 0.5s0.223 0.5 0.5 0.5c0 0 0.438 0 1.938 0s1.697 1.244 1.6 1.844c-0.124 0.746-0.474 2.156-2.163 2.156-1.687 0-2.375 0-2.375 0-0.277 0-0.5 0.223-0.5 0.5 0 0.275 0.223 0.5 0.5 0.5 0 0 1.188 0 1.969 0 1.688 0 1.539 1.287 1.297 2.055-0.319 1.009-0.514 1.945-2.641 1.945-0.719 0-1.631 0-1.631 0-0.277 0-0.5 0.223-0.5 0.5 0 0.275 0.223 0.5 0.5 0.5 0 0 0.693 0 1.568 0 1.094 0 1.145 1.035 1.031 1.406-0.125 0.406-0.273 0.707-0.279 0.721-0.302 0.545-0.789 0.873-1.82 0.873h-5.467c-2.746 0-5.47-0.623-5.54-0.639-4.154-0.957-4.373-1.031-4.634-1.105 0 0-0.846-0.143-0.846-0.881l-0.007-13.812c0-0.469 0.299-0.893 0.794-1.042 0.062-0.024 0.146-0.050 0.206-0.075 4.568-1.892 5.959-6.040 6-9.446 0.006-0.479 0.375-1 1-1 1.057 0 2.926 2.122 2.926 4.748 0 2.371-0.096 2.781-0.926 5.252 10 0 9.93 0.144 10.812 0.375 1.094 0.313 1.188 1.219 1.188 1.531 0 0.343-0.010 0.293-0.023 0.629zM4.5 26c-0.828 0-1.5 0.672-1.5 1.5s0.672 1.5 1.5 1.5 1.5-0.672 1.5-1.5-0.672-1.5-1.5-1.5zM4.5 28c-0.275 0-0.5-0.225-0.5-0.5s0.225-0.5 0.5-0.5 0.5 0.225 0.5 0.5-0.225 0.5-0.5 0.5z"></path>
		</symbol>
		<symbol id="icon_home" viewBox="0 0 26 28">
			<title>home</title>
			<path d="M22 15.5v7.5c0 0.547-0.453 1-1 1h-6v-6h-4v6h-6c-0.547 0-1-0.453-1-1v-7.5c0-0.031 0.016-0.063 0.016-0.094l8.984-7.406 8.984 7.406c0.016 0.031 0.016 0.063 0.016 0.094zM25.484 14.422l-0.969 1.156c-0.078 0.094-0.203 0.156-0.328 0.172h-0.047c-0.125 0-0.234-0.031-0.328-0.109l-10.813-9.016-10.813 9.016c-0.109 0.078-0.234 0.125-0.375 0.109-0.125-0.016-0.25-0.078-0.328-0.172l-0.969-1.156c-0.172-0.203-0.141-0.531 0.063-0.703l11.234-9.359c0.656-0.547 1.719-0.547 2.375 0l3.813 3.187v-3.047c0-0.281 0.219-0.5 0.5-0.5h3c0.281 0 0.5 0.219 0.5 0.5v6.375l3.422 2.844c0.203 0.172 0.234 0.5 0.063 0.703z"></path>
		</symbol>
		<symbol id="icon_sad" viewBox="0 0 32 32">
			<title>sad</title>
			<path d="M16 32c8.837 0 16-7.163 16-16s-7.163-16-16-16-16 7.163-16 16 7.163 16 16 16zM16 3c7.18 0 13 5.82 13 13s-5.82 13-13 13-13-5.82-13-13 5.82-13 13-13zM8 10c0-1.105 0.895-2 2-2s2 0.895 2 2c0 1.105-0.895 2-2 2s-2-0.895-2-2zM20 10c0-1.105 0.895-2 2-2s2 0.895 2 2c0 1.105-0.895 2-2 2s-2-0.895-2-2zM9.997 24.398l-2.573-1.544c1.749-2.908 4.935-4.855 8.576-4.855s6.827 1.946 8.576 4.855l-2.573 1.544c-1.224-2.036-3.454-3.398-6.003-3.398s-4.779 1.362-6.003 3.398z"></path>
		</symbol>
		<symbol id="icon_check" viewBox="0 0 32 32">
			<title>check-alt</title>
			<path d="M16 0c-8.836 0-16 7.164-16 16s7.164 16 16 16 16-7.164 16-16-7.164-16-16-16zM13.52 23.383l-7.362-7.363 2.828-2.828 4.533 4.535 9.617-9.617 2.828 2.828-12.444 12.445z"></path>
		</symbol>
		<symbol id="icon_world" viewBox="0 0 32 32">
			<title>world</title>
			<path d="M15.5 0c-8.561 0-15.5 6.939-15.5 15.5s6.939 15.5 15.5 15.5 15.5-6.939 15.5-15.5-6.939-15.5-15.5-15.5zM28.975 15h-5.996c-0.055-2.215-0.449-4.331-1.148-6.268 1.35-0.563 2.598-1.312 3.736-2.197 2.023 2.271 3.288 5.22 3.408 8.465zM14.947 28.972c-1.662-1.384-3.056-3.181-4.076-5.268 1.309-0.409 2.696-0.633 4.129-0.679v5.949c-0.018 0-0.035-0.001-0.053-0.002zM16.051 2.028c1.886 1.57 3.425 3.673 4.466 6.126-1.426 0.487-2.941 0.77-4.518 0.82v-6.949c0.019 0.001 0.035 0.002 0.052 0.003zM17.717 2.198c2.76 0.459 5.236 1.748 7.164 3.614-1.047 0.803-2.191 1.483-3.428 1.998-0.91-2.157-2.187-4.064-3.736-5.612zM15 2.025v6.949c-1.577-0.051-3.093-0.333-4.518-0.82 1.041-2.453 2.58-4.556 4.466-6.126 0.018-0.001 0.034-0.002 0.052-0.003zM9.546 7.811c-1.235-0.515-2.38-1.195-3.427-1.998 1.927-1.866 4.404-3.155 7.164-3.614-1.55 1.547-2.826 3.454-3.737 5.612zM10.105 9.076c1.542 0.535 3.185 0.847 4.895 0.899v5.025h-5.979c0.054-2.094 0.425-4.095 1.084-5.924zM15 16v6.025c-1.577 0.048-3.102 0.306-4.539 0.769-0.866-2.062-1.377-4.359-1.44-6.794h5.979zM13.283 28.802c-2.473-0.411-4.719-1.488-6.545-3.052 0.985-0.683 2.050-1.261 3.188-1.7 0.872 1.808 2.013 3.413 3.357 4.752zM16 28.975v-5.949c1.432 0.046 2.82 0.27 4.129 0.679-1.021 2.087-2.414 3.884-4.076 5.268-0.017 0-0.035 0.001-0.053 0.002zM21.074 24.050c1.137 0.439 2.201 1.018 3.188 1.7-1.826 1.563-4.072 2.641-6.545 3.052 1.344-1.339 2.484-2.944 3.357-4.752zM20.539 22.794c-1.438-0.463-2.963-0.721-4.539-0.769v-6.025h5.979c-0.063 2.435-0.575 4.732-1.44 6.794zM16 15v-5.025c1.709-0.052 3.352-0.363 4.895-0.898 0.658 1.829 1.029 3.83 1.084 5.924h-5.979zM5.434 6.535c1.138 0.885 2.386 1.634 3.735 2.197-0.699 1.937-1.093 4.053-1.148 6.268h-5.996c0.12-3.245 1.385-6.194 3.409-8.465zM2.025 16h5.996c0.062 2.555 0.596 4.968 1.503 7.137-1.267 0.494-2.448 1.152-3.538 1.931-2.348-2.337-3.83-5.532-3.961-9.068zM25.014 25.067c-1.090-0.778-2.271-1.437-3.539-1.931 0.908-2.169 1.441-4.582 1.504-7.137h5.996c-0.131 3.537-1.614 6.732-3.961 9.068z"></path>
		</symbol>
		<symbol id="icon_star_empty" viewBox="0 0 32 32">
			<title>star-empty</title>
			<path d="M32 12.408l-11.056-1.607-4.944-10.018-4.944 10.018-11.056 1.607 8 7.798-1.889 11.011 9.889-5.199 9.889 5.199-1.889-11.011 8-7.798zM16 23.547l-6.983 3.671 1.334-7.776-5.65-5.507 7.808-1.134 3.492-7.075 3.492 7.075 7.807 1.134-5.65 5.507 1.334 7.776-6.983-3.671z"></path>
		</symbol>
		<symbol id="icon_star_half" viewBox="0 0 32 32">
			<title>star-half</title>
			<path d="M32 12.408l-11.056-1.607-4.944-10.018-4.944 10.018-11.056 1.607 8 7.798-1.889 11.011 9.889-5.199 9.889 5.199-1.889-11.011 8-7.798zM16 23.547l-0.029 0.015 0.029-17.837 3.492 7.075 7.807 1.134-5.65 5.507 1.334 7.776-6.983-3.671z"></path>
		</symbol>

		<symbol id="icon_star_full" viewBox="0 0 32 32">
			<title>star-full</title>
			<path d="M32 12.408l-11.056-1.607-4.944-10.018-4.944 10.018-11.056 1.607 8 7.798-1.889 11.011 9.889-5.199 9.889 5.199-1.889-11.011 8-7.798z"></path>
		</symbol>

		<symbol id="icon_magnifier" viewBox="0 0 32 32">
			<title>magnifier</title>
			<path d="M29.156 29.961l-0.709 0.709c-0.785 0.784-2.055 0.784-2.838 0l-5.676-5.674c-0.656-0.658-0.729-1.644-0.281-2.412l-3.104-3.102c-1.669 1.238-3.728 1.979-5.965 1.979-5.54 0-10.031-4.491-10.031-10.031s4.491-10.032 10.031-10.032c5.541 0 10.031 4.491 10.031 10.032 0 2.579-0.98 4.923-2.58 6.7l3.035 3.035c0.768-0.447 1.754-0.375 2.41 0.283l5.676 5.674c0.784 0.785 0.784 2.056 0.001 2.839zM18.088 11.389c0-4.155-3.369-7.523-7.524-7.523s-7.524 3.367-7.524 7.523 3.368 7.523 7.523 7.523 7.525-3.368 7.525-7.523z"></path>
		</symbol>
		<symbol id="icon-justice" viewBox="0 0 32 32">
			<title>justice</title>
			<path d="M24.064 6.583l-3.773 8.375h-1.098l4.024-8.916h-6.213v20.771c1.28 0.047 7.813 2.167 7.813 2.167v1.020h-17.56v-1.089c0 0 6.678-2.099 7.684-2.099v-20.77h-6.015l4.025 8.916h-1.098l-3.773-8.375-3.773 8.375h-1.098l4.048-8.966v-1.034h6.754c0-1.353 0.907-2.458 1.965-2.458 1.119 0 1.965 1.168 1.965 2.458h6.878v0.887l4.116 9.113h-1.098l-3.773-8.375zM13.020 15.979c0 2.693-1.868 5.282-4.939 5.282-3.002 0-4.939-2.589-4.939-5.282-0.001 0.004 9.878 0.004 9.878 0zM19.262 15.979c0 0.005 9.879 0.005 9.879 0 0 2.693-1.868 5.282-4.939 5.282-3.003 0-4.94-2.589-4.94-5.282z"></path>
		</symbol>

		<symbol id="icon-shopping-basket" viewBox="0 0 32 28">
			<title>shopping-basket</title>
			<path d="M30 12c1.109 0 2 0.891 2 2s-0.891 2-2 2h-0.234l-1.797 10.344c-0.172 0.953-1 1.656-1.969 1.656h-20c-0.969 0-1.797-0.703-1.969-1.656l-1.797-10.344h-0.234c-1.109 0-2-0.891-2-2s0.891-2 2-2h28zM7.578 24.5c0.547-0.047 0.969-0.531 0.922-1.078l-0.5-6.5c-0.047-0.547-0.531-0.969-1.078-0.922s-0.969 0.531-0.922 1.078l0.5 6.5c0.047 0.516 0.484 0.922 1 0.922h0.078zM14 23.5v-6.5c0-0.547-0.453-1-1-1s-1 0.453-1 1v6.5c0 0.547 0.453 1 1 1s1-0.453 1-1zM20 23.5v-6.5c0-0.547-0.453-1-1-1s-1 0.453-1 1v6.5c0 0.547 0.453 1 1 1s1-0.453 1-1zM25.5 23.578l0.5-6.5c0.047-0.547-0.375-1.031-0.922-1.078s-1.031 0.375-1.078 0.922l-0.5 6.5c-0.047 0.547 0.375 1.031 0.922 1.078h0.078c0.516 0 0.953-0.406 1-0.922zM7.438 4.562l-1.453 6.438h-2.063l1.578-6.891c0.406-1.828 2.016-3.109 3.891-3.109h2.609c0-0.547 0.453-1 1-1h6c0.547 0 1 0.453 1 1h2.609c1.875 0 3.484 1.281 3.891 3.109l1.578 6.891h-2.063l-1.453-6.438c-0.219-0.922-1.016-1.563-1.953-1.563h-2.609c0 0.547-0.453 1-1 1h-6c-0.547 0-1-0.453-1-1h-2.609c-0.938 0-1.734 0.641-1.953 1.563z"></path>
		</symbol>
		<symbol id="icon-basket" viewBox="0 0 32 32">
			<title>basket</title>
			<path d="M29 14h-26c-0.553 0-1-0.447-1-1s0.447-1 1-1h2l6-11c0-0.553 0.447-1 1-1h2c0.553 0 1 0.447 1 1l-6 11h14l-6-11c0-0.553 0.447-1 1-1h3c0.553 0 1 0.447 1 1l5 11h2c0.553 0 1 0.447 1 1s-0.447 1-1 1zM3 16h26c0.553 0 1 0.447 1 1l-2 14c0 0.553-0.447 1-1 1h-22c-0.553 0-1-0.447-1-1l-2-14c0-0.553 0.447-1 1-1zM22 28h2c0.553 0 1-0.447 1-1l1-6c0-0.553-0.447-1-1-1h-2c-0.553 0-1 0.447-1 1l-1 6c0 0.553 0.447 1 1 1zM14 27c0 0.553 0.447 1 1 1h2c0.553 0 1-0.447 1-1v-6c0-0.553-0.447-1-1-1h-2c-0.553 0-1 0.447-1 1v6zM7 27c0 0.553 0.447 1 1 1h2c0.553 0 1-0.447 1-1l-1-6c0-0.553-0.447-1-1-1h-2c-0.553 0-1 0.447-1 1l1 6z"></path>
		</symbol>

		<symbol id="icon-add-outline" viewBox="0 0 20 20">
			<title>add-outline</title>
			<path d="M11 9h4v2h-4v4h-2v-4h-4v-2h4v-4h2v4zM10 20c-5.523 0-10-4.477-10-10s4.477-10 10-10v0c5.523 0 10 4.477 10 10s-4.477 10-10 10v0zM10 18c4.418 0 8-3.582 8-8s-3.582-8-8-8v0c-4.418 0-8 3.582-8 8s3.582 8 8 8v0z"></path>
		</symbol>
		<symbol id="icon-printer" viewBox="0 0 32 32">
			<title>printer</title>
			<path d="M8 2h16v4h-16v-4z"></path>
			<path d="M30 8h-28c-1.1 0-2 0.9-2 2v10c0 1.1 0.9 2 2 2h6v8h16v-8h6c1.1 0 2-0.9 2-2v-10c0-1.1-0.9-2-2-2zM4 14c-1.105 0-2-0.895-2-2s0.895-2 2-2 2 0.895 2 2-0.895 2-2 2zM22 28h-12v-10h12v10z"></path>
		</symbol>

		<symbol id="icon-quotes-right" viewBox="0 0 32 32">
			<title>quotes-right</title>
			<path d="M25 20c-3.866 0-7-3.134-7-7s3.134-7 7-7 7 3.134 7 7l0.031 1c0 7.732-6.268 14-14 14v-4c2.671 0 5.182-1.040 7.071-2.929 0.364-0.364 0.695-0.75 0.995-1.157-0.357 0.056-0.724 0.086-1.097 0.086zM7 20c-3.866 0-7-3.134-7-7s3.134-7 7-7 7 3.134 7 7l0.031 1c0 7.732-6.268 14-14 14v-4c2.671 0 5.182-1.040 7.071-2.929 0.364-0.364 0.695-0.75 0.995-1.157-0.357 0.056-0.724 0.086-1.097 0.086z"></path>
		</symbol>

		<symbol id="icon-quotes-left" viewBox="0 0 32 32">
			<title>quotes-left</title>
			<path d="M7.031 14c3.866 0 7 3.134 7 7s-3.134 7-7 7-7-3.134-7-7l-0.031-1c0-7.732 6.268-14 14-14v4c-2.671 0-5.182 1.040-7.071 2.929-0.364 0.364-0.695 0.751-0.995 1.157 0.357-0.056 0.724-0.086 1.097-0.086zM25.031 14c3.866 0 7 3.134 7 7s-3.134 7-7 7-7-3.134-7-7l-0.031-1c0-7.732 6.268-14 14-14v4c-2.671 0-5.182 1.040-7.071 2.929-0.364 0.364-0.695 0.751-0.995 1.157 0.358-0.056 0.724-0.086 1.097-0.086z"></path>
		</symbol>

		<symbol id="icon-star-full" viewBox="0 0 32 32">
			<title>star-full</title>
			<path d="M32 12.408l-11.056-1.607-4.944-10.018-4.944 10.018-11.056 1.607 8 7.798-1.889 11.011 9.889-5.199 9.889 5.199-1.889-11.011 8-7.798z"></path>
		</symbol>

		<symbol id="icon-cart" viewBox="0 0 32 32">
			<title>cart</title>
			<path d="M12 29c0 1.657-1.343 3-3 3s-3-1.343-3-3c0-1.657 1.343-3 3-3s3 1.343 3 3z"></path>
			<path d="M32 29c0 1.657-1.343 3-3 3s-3-1.343-3-3c0-1.657 1.343-3 3-3s3 1.343 3 3z"></path>
			<path d="M32 16v-12h-24c0-1.105-0.895-2-2-2h-6v2h4l1.502 12.877c-0.915 0.733-1.502 1.859-1.502 3.123 0 2.209 1.791 4 4 4h24v-2h-24c-1.105 0-2-0.895-2-2 0-0.007 0-0.014 0-0.020l26-3.98z"></path>
		</symbol>

		<symbol id="icon-google" viewBox="0 0 32 32">
			<title>google</title>
			<path d="M16.319 13.713v5.487h9.075c-0.369 2.356-2.744 6.9-9.075 6.9-5.463 0-9.919-4.525-9.919-10.1s4.456-10.1 9.919-10.1c3.106 0 5.188 1.325 6.375 2.469l4.344-4.181c-2.788-2.612-6.4-4.188-10.719-4.188-8.844 0-16 7.156-16 16s7.156 16 16 16c9.231 0 15.363-6.494 15.363-15.631 0-1.050-0.113-1.85-0.25-2.65l-15.113-0.006z"></path>
		</symbol>
		<symbol id="icon_h" width="30px" height="26px" viewBox="0 0 300 260">
			<title>social</title>
			<path d="M167 240 c-18 -14 -40 -20 -80 -20 -75 0 -82 -11 -82 -124 0 -89 0 -91 25 -94 39 -6 240 30 255 45 11 10 13 31 8 81 -7 76 -15 92 -49 92 -26 0 -30 10 -12 28 21 21 -37 14 -65 -8z m-47 -95 c0 -20 5 -25 25 -25 20 0 25 5 25 25 0 14 5 25 10 25 6 0 10 -22 10 -50 0 -27 -4 -50 -10 -50 -5 0 -10 9 -10 20 0 15 -7 20 -25 20 -18 0 -25 -5 -25 -20 0 -11 -4 -20 -10 -20 -5 0 -10 23 -10 50 0 28 5 50 10 50 6 0 10 -11 10 -25z"></path>
		</symbol>
		<symbol id="icon_close" viewBox="0 0 1024 1024">
			<title>close</title>
			<path class="path1" d="M810 274l-238 238 238 238-60 60-238-238-238 238-60-60 238-238-238-238 60-60 238 238 238-238z"></path>
		</symbol>

		<symbol id="icon_error" viewBox="0 0 1024 1024">
			<title>error</title>
			<path class="path1" d="M512 854q140 0 241-101t101-241-101-241-241-101-241 101-101 241 101 241 241 101zM512 86q176 0 301 125t125 301-125 301-301 125-301-125-125-301 125-301 301-125zM470 298h84v256h-84v-256zM470 640h84v86h-84v-86z"></path>
		</symbol>
		<symbol id="icon_check" viewBox="0 0 1024 1024">
			<title>check</title>
			<path class="path1" d="M384 690l452-452 60 60-512 512-238-238 60-60z"></path>
		</symbol>

		<symbol id="icon-ctrl" viewBox="0 0 32 32">
			<title>ctrl</title>
			<path d="M23 14c-0.278 0-0.555-0.116-0.753-0.341l-6.247-7.14-6.247 7.14c-0.364 0.416-0.995 0.458-1.411 0.094s-0.458-0.995-0.094-1.411l7-8c0.19-0.217 0.464-0.341 0.753-0.341s0.563 0.125 0.753 0.341l7 8c0.364 0.416 0.322 1.047-0.094 1.411-0.19 0.166-0.424 0.247-0.658 0.247z"></path>
		</symbol>

		<symbol id="icon-mobile" viewBox="0 0 32 32">
			<title>mobile</title>
			<path class="path1" d="M23 0h-14c-1.65 0-3 1.35-3 3v26c0 1.65 1.35 3 3 3h14c1.65 0 3-1.35 3-3v-26c0-1.65-1.35-3-3-3zM12 1.5h8v1h-8v-1zM16 30c-1.105 0-2-0.895-2-2s0.895-2 2-2 2 0.895 2 2-0.895 2-2 2zM24 24h-16v-20h16v20z"></path>
		</symbol>
		<symbol id="icon-google" viewBox="0 0 32 32">
			<title>google</title>
			<path class="path1" d="M16.319 13.713v5.487h9.075c-0.369 2.356-2.744 6.9-9.075 6.9-5.463 0-9.919-4.525-9.919-10.1s4.456-10.1 9.919-10.1c3.106 0 5.188 1.325 6.375 2.469l4.344-4.181c-2.788-2.612-6.4-4.188-10.719-4.188-8.844 0-16 7.156-16 16s7.156 16 16 16c9.231 0 15.363-6.494 15.363-15.631 0-1.050-0.113-1.85-0.25-2.65l-15.113-0.006z"></path>
		</symbol>

		<symbol id="icon-location" viewBox="0 0 32 32">
			<title>location</title>
			<path d="M16.013 32v-16.017h-16.013l32-15.983-15.987 32z"></path>
		</symbol>
		<symbol id="icon-map" viewBox="0 0 41 32">
			<title>map</title>
			<path d="M9.239 31.927c0.009 0.006 0.021 0.003 0.030 0.009 0.073 0.037 0.149 0.064 0.231 0.064 0.044 0 0.088-0.006 0.132-0.018l10.868-2.966 10.868 2.966c0.044 0.012 0.088 0.018 0.132 0.018 0.082 0 0.158-0.027 0.23-0.065 0.010-0.005 0.021-0.003 0.030-0.009l9-5.5c0.191-0.117 0.281-0.348 0.22-0.563l-4.984-17.5c-0.041-0.147-0.148-0.267-0.29-0.326-0.142-0.057-0.301-0.048-0.436 0.026l-4.962 2.784c-0.24 0.135-0.326 0.44-0.191 0.681s0.439 0.327 0.682 0.191l4.409-2.475 4.707 16.526-8.015 4.899-1.904-15.231c-0.034-0.275-0.293-0.466-0.559-0.434-0.273 0.034-0.468 0.284-0.434 0.558l1.907 15.259-9.91-2.705v-2.73c0-0.276-0.224-0.5-0.5-0.5s-0.5 0.224-0.5 0.5v2.73l-9.911 2.705 1.907-15.259c0.034-0.274-0.16-0.524-0.434-0.558-0.272-0.032-0.524 0.159-0.559 0.434l-1.903 15.231-8.015-4.898 4.707-16.525 4.409 2.475c0.242 0.134 0.546 0.049 0.682-0.191 0.135-0.241 0.049-0.545-0.191-0.681l-4.963-2.785c-0.133-0.075-0.292-0.085-0.435-0.026s-0.249 0.178-0.29 0.326l-4.984 17.5c-0.062 0.216 0.028 0.446 0.22 0.563l8.999 5.5zM20.161 23.368c0.096 0.088 0.217 0.132 0.339 0.132 0.12 0 0.24-0.043 0.336-0.129 0.333-0.303 8.164-7.489 8.164-14.871 0-4.767-3.733-8.5-8.5-8.5s-8.5 3.733-8.5 8.5c0 7.254 7.828 14.56 8.161 14.868zM20.5 1c4.275 0 7.5 3.224 7.5 7.5 0 6.097-5.993 12.337-7.497 13.807-1.501-1.487-7.503-7.809-7.503-13.807 0-4.276 3.225-7.5 7.5-7.5zM25 8.5c0-2.481-2.019-4.5-4.5-4.5s-4.5 2.019-4.5 4.5 2.019 4.5 4.5 4.5 4.5-2.019 4.5-4.5zM20.5 12c-1.93 0-3.5-1.57-3.5-3.5s1.57-3.5 3.5-3.5 3.5 1.57 3.5 3.5-1.57 3.5-3.5 3.5z"></path>
		</symbol>
		<symbol id="icon-cogs" viewBox="0 0 32 32">
			<title>cogs</title>
			<path d="M11.366 22.564l1.291-1.807-1.414-1.414-1.807 1.291c-0.335-0.187-0.694-0.337-1.071-0.444l-0.365-2.19h-2l-0.365 2.19c-0.377 0.107-0.736 0.256-1.071 0.444l-1.807-1.291-1.414 1.414 1.291 1.807c-0.187 0.335-0.337 0.694-0.443 1.071l-2.19 0.365v2l2.19 0.365c0.107 0.377 0.256 0.736 0.444 1.071l-1.291 1.807 1.414 1.414 1.807-1.291c0.335 0.187 0.694 0.337 1.071 0.444l0.365 2.19h2l0.365-2.19c0.377-0.107 0.736-0.256 1.071-0.444l1.807 1.291 1.414-1.414-1.291-1.807c0.187-0.335 0.337-0.694 0.444-1.071l2.19-0.365v-2l-2.19-0.365c-0.107-0.377-0.256-0.736-0.444-1.071zM7 27c-1.105 0-2-0.895-2-2s0.895-2 2-2 2 0.895 2 2-0.895 2-2 2zM32 12v-2l-2.106-0.383c-0.039-0.251-0.088-0.499-0.148-0.743l1.799-1.159-0.765-1.848-2.092 0.452c-0.132-0.216-0.273-0.426-0.422-0.629l1.219-1.761-1.414-1.414-1.761 1.219c-0.203-0.149-0.413-0.29-0.629-0.422l0.452-2.092-1.848-0.765-1.159 1.799c-0.244-0.059-0.492-0.109-0.743-0.148l-0.383-2.106h-2l-0.383 2.106c-0.251 0.039-0.499 0.088-0.743 0.148l-1.159-1.799-1.848 0.765 0.452 2.092c-0.216 0.132-0.426 0.273-0.629 0.422l-1.761-1.219-1.414 1.414 1.219 1.761c-0.149 0.203-0.29 0.413-0.422 0.629l-2.092-0.452-0.765 1.848 1.799 1.159c-0.059 0.244-0.109 0.492-0.148 0.743l-2.106 0.383v2l2.106 0.383c0.039 0.251 0.088 0.499 0.148 0.743l-1.799 1.159 0.765 1.848 2.092-0.452c0.132 0.216 0.273 0.426 0.422 0.629l-1.219 1.761 1.414 1.414 1.761-1.219c0.203 0.149 0.413 0.29 0.629 0.422l-0.452 2.092 1.848 0.765 1.159-1.799c0.244 0.059 0.492 0.109 0.743 0.148l0.383 2.106h2l0.383-2.106c0.251-0.039 0.499-0.088 0.743-0.148l1.159 1.799 1.848-0.765-0.452-2.092c0.216-0.132 0.426-0.273 0.629-0.422l1.761 1.219 1.414-1.414-1.219-1.761c0.149-0.203 0.29-0.413 0.422-0.629l2.092 0.452 0.765-1.848-1.799-1.159c0.059-0.244 0.109-0.492 0.148-0.743l2.106-0.383zM21 15.35c-2.402 0-4.35-1.948-4.35-4.35s1.948-4.35 4.35-4.35 4.35 1.948 4.35 4.35c0 2.402-1.948 4.35-4.35 4.35z"></path>
		</symbol>

		<symbol id="icon-flickr" viewBox="0 0 32 32">
			<title>flickr</title>
			<path d="M0 17c0-3.866 3.134-7 7-7s7 3.134 7 7c0 3.866-3.134 7-7 7s-7-3.134-7-7zM18 17c0-3.866 3.134-7 7-7s7 3.134 7 7c0 3.866-3.134 7-7 7s-7-3.134-7-7z"></path>
		</symbol>
		<symbol id="icon-pinterest-p" viewBox="0 0 20 28">
			<title>pinterest-p</title>
			<path d="M0 9.328c0-5.766 5.281-9.328 10.625-9.328 4.906 0 9.375 3.375 9.375 8.547 0 4.859-2.484 10.25-8.016 10.25-1.313 0-2.969-0.656-3.609-1.875-1.188 4.703-1.094 5.406-3.719 9l-0.219 0.078-0.141-0.156c-0.094-0.984-0.234-1.953-0.234-2.938 0-3.187 1.469-7.797 2.188-10.891-0.391-0.797-0.5-1.766-0.5-2.641 0-1.578 1.094-3.578 2.875-3.578 1.313 0 2.016 1 2.016 2.234 0 2.031-1.375 3.938-1.375 5.906 0 1.344 1.109 2.281 2.406 2.281 3.594 0 4.703-5.187 4.703-7.953 0-3.703-2.625-5.719-6.172-5.719-4.125 0-7.313 2.969-7.313 7.156 0 2.016 1.234 3.047 1.234 3.531 0 0.406-0.297 1.844-0.812 1.844-0.078 0-0.187-0.031-0.266-0.047-2.234-0.672-3.047-3.656-3.047-5.703z"></path>
		</symbol>
		<symbol id="icon-pinterest" viewBox="0 0 32 32">
			<title>pinterest</title>
			<path d="M16 2.138c-7.656 0-13.863 6.206-13.863 13.863 0 5.875 3.656 10.887 8.813 12.906-0.119-1.094-0.231-2.781 0.050-3.975 0.25-1.081 1.625-6.887 1.625-6.887s-0.412-0.831-0.412-2.056c0-1.925 1.119-3.369 2.506-3.369 1.181 0 1.756 0.887 1.756 1.95 0 1.188-0.756 2.969-1.15 4.613-0.331 1.381 0.688 2.506 2.050 2.506 2.462 0 4.356-2.6 4.356-6.35 0-3.319-2.387-5.638-5.787-5.638-3.944 0-6.256 2.956-6.256 6.019 0 1.194 0.456 2.469 1.031 3.163 0.113 0.137 0.131 0.256 0.094 0.4-0.106 0.438-0.338 1.381-0.387 1.575-0.063 0.256-0.2 0.306-0.463 0.188-1.731-0.806-2.813-3.337-2.813-5.369 0-4.375 3.175-8.387 9.156-8.387 4.806 0 8.544 3.425 8.544 8.006 0 4.775-3.012 8.625-7.194 8.625-1.406 0-2.725-0.731-3.175-1.594 0 0-0.694 2.644-0.863 3.294-0.313 1.206-1.156 2.712-1.725 3.631 1.3 0.4 2.675 0.619 4.106 0.619 7.656 0 13.863-6.206 13.863-13.863 0-7.662-6.206-13.869-13.863-13.869z"></path>
		</symbol>

		<symbol id="icon-twitter" viewBox="0 0 32 32">
			<title>twitter</title>
			<path d="M32 7.075c-1.175 0.525-2.444 0.875-3.769 1.031 1.356-0.813 2.394-2.1 2.887-3.631-1.269 0.75-2.675 1.3-4.169 1.594-1.2-1.275-2.906-2.069-4.794-2.069-3.625 0-6.563 2.938-6.563 6.563 0 0.512 0.056 1.012 0.169 1.494-5.456-0.275-10.294-2.888-13.531-6.862-0.563 0.969-0.887 2.1-0.887 3.3 0 2.275 1.156 4.287 2.919 5.463-1.075-0.031-2.087-0.331-2.975-0.819 0 0.025 0 0.056 0 0.081 0 3.181 2.263 5.838 5.269 6.437-0.55 0.15-1.131 0.231-1.731 0.231-0.425 0-0.831-0.044-1.237-0.119 0.838 2.606 3.263 4.506 6.131 4.563-2.25 1.762-5.075 2.813-8.156 2.813-0.531 0-1.050-0.031-1.569-0.094 2.913 1.869 6.362 2.95 10.069 2.95 12.075 0 18.681-10.006 18.681-18.681 0-0.287-0.006-0.569-0.019-0.85 1.281-0.919 2.394-2.075 3.275-3.394z"></path>
		</symbol>
		<symbol id="icon-instagram-c" viewBox="0 0 32 32">
			<title>instagram</title>
			<path fill="#784fa0" style="fill: var(--color1, #784fa0)" d="M16 0c-4.347 0-4.889 0.020-6.596 0.096-1.704 0.080-2.864 0.348-3.884 0.744-1.052 0.408-1.945 0.956-2.835 1.845s-1.439 1.781-1.845 2.835c-0.396 1.020-0.665 2.18-0.744 3.884-0.080 1.707-0.096 2.249-0.096 6.596s0.020 4.889 0.096 6.596c0.080 1.703 0.348 2.864 0.744 3.884 0.408 1.051 0.956 1.945 1.845 2.835 0.889 0.888 1.781 1.439 2.835 1.845 1.021 0.395 2.181 0.665 3.884 0.744 1.707 0.080 2.249 0.096 6.596 0.096s4.889-0.020 6.596-0.096c1.703-0.080 2.864-0.349 3.884-0.744 1.051-0.408 1.945-0.957 2.835-1.845 0.888-0.889 1.439-1.78 1.845-2.835 0.395-1.020 0.665-2.181 0.744-3.884 0.080-1.707 0.096-2.249 0.096-6.596s-0.020-4.889-0.096-6.596c-0.080-1.703-0.349-2.865-0.744-3.884-0.408-1.052-0.957-1.945-1.845-2.835-0.889-0.889-1.78-1.439-2.835-1.845-1.020-0.396-2.181-0.665-3.884-0.744-1.707-0.080-2.249-0.096-6.596-0.096zM16 2.88c4.271 0 4.78 0.021 6.467 0.095 1.56 0.073 2.407 0.332 2.969 0.553 0.749 0.289 1.28 0.636 1.843 1.195 0.559 0.56 0.905 1.092 1.195 1.841 0.219 0.563 0.48 1.409 0.551 2.969 0.076 1.688 0.093 2.195 0.093 6.467s-0.020 4.78-0.099 6.467c-0.081 1.56-0.341 2.407-0.561 2.969-0.299 0.749-0.639 1.28-1.199 1.843-0.559 0.559-1.099 0.905-1.84 1.195-0.56 0.219-1.42 0.48-2.98 0.551-1.699 0.076-2.199 0.093-6.479 0.093-4.281 0-4.781-0.020-6.479-0.099-1.561-0.081-2.421-0.341-2.981-0.561-0.759-0.299-1.28-0.639-1.839-1.199-0.561-0.559-0.92-1.099-1.2-1.84-0.22-0.56-0.479-1.42-0.56-2.98-0.060-1.68-0.081-2.199-0.081-6.459 0-4.261 0.021-4.781 0.081-6.481 0.081-1.56 0.34-2.419 0.56-2.979 0.28-0.76 0.639-1.28 1.2-1.841 0.559-0.559 1.080-0.919 1.839-1.197 0.56-0.221 1.401-0.481 2.961-0.561 1.7-0.060 2.2-0.080 6.479-0.080l0.060 0.040zM16 7.784c-4.54 0-8.216 3.68-8.216 8.216 0 4.54 3.68 8.216 8.216 8.216 4.54 0 8.216-3.68 8.216-8.216 0-4.54-3.68-8.216-8.216-8.216zM16 21.333c-2.947 0-5.333-2.387-5.333-5.333s2.387-5.333 5.333-5.333 5.333 2.387 5.333 5.333-2.387 5.333-5.333 5.333zM26.461 7.46c0 1.060-0.861 1.92-1.92 1.92-1.060 0-1.92-0.861-1.92-1.92s0.861-1.919 1.92-1.919c1.057-0.001 1.92 0.86 1.92 1.919z"></path>
		</symbol>

		<symbol id="icon-yt_pl_c" viewBox="0 0 32 32">
			<title>youtube</title>
			<path fill="#f00" style="fill: var(--color1, #f00)" d="M31.327 8.273c-0.386-1.353-1.431-2.398-2.756-2.777l-0.028-0.007c-2.493-0.668-12.528-0.668-12.528-0.668s-10.009-0.013-12.528 0.668c-1.353 0.386-2.398 1.431-2.777 2.756l-0.007 0.028c-0.443 2.281-0.696 4.903-0.696 7.585 0 0.054 0 0.109 0 0.163l-0-0.008c-0 0.037-0 0.082-0 0.126 0 2.682 0.253 5.304 0.737 7.845l-0.041-0.26c0.386 1.353 1.431 2.398 2.756 2.777l0.028 0.007c2.491 0.669 12.528 0.669 12.528 0.669s10.008 0 12.528-0.669c1.353-0.386 2.398-1.431 2.777-2.756l0.007-0.028c0.425-2.233 0.668-4.803 0.668-7.429 0-0.099-0-0.198-0.001-0.297l0 0.015c0.001-0.092 0.001-0.201 0.001-0.31 0-2.626-0.243-5.196-0.708-7.687l0.040 0.258zM12.812 20.801v-9.591l8.352 4.803z"></path>
		</symbol>
		<symbol id="icon-yt_pl" viewBox="0 0 32 32">
			<title>youtube1</title>
			<path d="M31.681 9.6c0 0-0.313-2.206-1.275-3.175-1.219-1.275-2.581-1.281-3.206-1.356-4.475-0.325-11.194-0.325-11.194-0.325h-0.012c0 0-6.719 0-11.194 0.325-0.625 0.075-1.987 0.081-3.206 1.356-0.963 0.969-1.269 3.175-1.269 3.175s-0.319 2.588-0.319 5.181v2.425c0 2.587 0.319 5.181 0.319 5.181s0.313 2.206 1.269 3.175c1.219 1.275 2.819 1.231 3.531 1.369 2.563 0.244 10.881 0.319 10.881 0.319s6.725-0.012 11.2-0.331c0.625-0.075 1.988-0.081 3.206-1.356 0.962-0.969 1.275-3.175 1.275-3.175s0.319-2.587 0.319-5.181v-2.425c-0.006-2.588-0.325-5.181-0.325-5.181zM12.694 20.15v-8.994l8.644 4.513-8.644 4.481z"></path>
		</symbol>
		<symbol id="icon-google-c" viewBox="0 0 512 512">
			<title>google</title>
			<path style="fill:#FBBB00;" d="M113.47,309.408L95.648,375.94l-65.139,1.378C11.042,341.211,0,299.9,0,256 c0-42.451,10.324-82.483,28.624-117.732h0.014l57.992,10.632l25.404,57.644c-5.317,15.501-8.215,32.141-8.215,49.456 C103.821,274.792,107.225,292.797,113.47,309.408z"/>
			<path style="fill:#518EF8;" d="M507.527,208.176C510.467,223.662,512,239.655,512,256c0,18.328-1.927,36.206-5.598,53.451 c-12.462,58.683-45.025,109.925-90.134,146.187l-0.014-0.014l-73.044-3.727l-10.338-64.535 c29.932-17.554,53.324-45.025,65.646-77.911h-136.89V208.176h138.887L507.527,208.176L507.527,208.176z"/>
			<path style="fill:#28B446;" d="M416.253,455.624l0.014,0.014C372.396,490.901,316.666,512,256,512 c-97.491,0-182.252-54.491-225.491-134.681l82.961-67.91c21.619,57.698,77.278,98.771,142.53,98.771 c28.047,0,54.323-7.582,76.87-20.818L416.253,455.624z"/>
			<path style="fill:#F14336;" d="M419.404,58.936l-82.933,67.896c-23.335-14.586-50.919-23.012-80.471-23.012 c-66.729,0-123.429,42.957-143.965,102.724l-83.397-68.276h-0.014C71.23,56.123,157.06,0,256,0 C318.115,0,375.068,22.126,419.404,58.936z"/>
		</symbol>
		<symbol id="icon_tel" viewBox="0 0 22 28">
			<title>phone</title>
			<path d="M22 19.375c0 0.562-0.25 1.656-0.484 2.172-0.328 0.766-1.203 1.266-1.906 1.656-0.922 0.5-1.859 0.797-2.906 0.797-1.453 0-2.766-0.594-4.094-1.078-0.953-0.344-1.875-0.766-2.734-1.297-2.656-1.641-5.859-4.844-7.5-7.5-0.531-0.859-0.953-1.781-1.297-2.734-0.484-1.328-1.078-2.641-1.078-4.094 0-1.047 0.297-1.984 0.797-2.906 0.391-0.703 0.891-1.578 1.656-1.906 0.516-0.234 1.609-0.484 2.172-0.484 0.109 0 0.219 0 0.328 0.047 0.328 0.109 0.672 0.875 0.828 1.188 0.5 0.891 0.984 1.797 1.5 2.672 0.25 0.406 0.719 0.906 0.719 1.391 0 0.953-2.828 2.344-2.828 3.187 0 0.422 0.391 0.969 0.609 1.344 1.578 2.844 3.547 4.813 6.391 6.391 0.375 0.219 0.922 0.609 1.344 0.609 0.844 0 2.234-2.828 3.187-2.828 0.484 0 0.984 0.469 1.391 0.719 0.875 0.516 1.781 1 2.672 1.5 0.313 0.156 1.078 0.5 1.188 0.828 0.047 0.109 0.047 0.219 0.047 0.328z"></path>
		</symbol>
		<symbol id="icon-phone-call" viewBox="0 0 24 24">
			<title>phone-call</title>
			<path d="M14.859 5.981c0.465 0.091 0.894 0.258 1.276 0.486 0.395 0.235 0.744 0.537 1.034 0.888 0.42 0.51 0.717 1.124 0.852 1.793 0.109 0.541 0.637 0.891 1.178 0.782s0.891-0.637 0.782-1.178c-0.2-0.992-0.641-1.907-1.269-2.669-0.434-0.526-0.957-0.979-1.554-1.334-0.578-0.344-1.222-0.595-1.916-0.73-0.542-0.106-1.067 0.248-1.173 0.79s0.248 1.067 0.79 1.173zM14.94 1.994c0.985 0.109 1.906 0.393 2.737 0.815 0.86 0.437 1.626 1.026 2.268 1.729 1.118 1.224 1.858 2.794 2.062 4.519 0.065 0.548 0.562 0.941 1.11 0.876s0.941-0.562 0.876-1.11c-0.253-2.147-1.176-4.106-2.571-5.634-0.802-0.878-1.76-1.614-2.838-2.163-1.043-0.531-2.196-0.884-3.423-1.021-0.549-0.061-1.043 0.335-1.104 0.884s0.335 1.043 0.883 1.104zM23 16.92c0.008-0.34-0.050-0.692-0.162-1.021-0.116-0.337-0.289-0.649-0.511-0.922-0.234-0.288-0.521-0.533-0.851-0.72-0.319-0.18-0.675-0.304-1.074-0.36-0.8-0.098-1.695-0.314-2.586-0.646-0.433-0.159-0.893-0.218-1.344-0.174-0.336 0.033-0.668 0.122-0.98 0.268-0.303 0.142-0.586 0.337-0.838 0.587l-0.72 0.72c-1.77-1.117-3.36-2.667-4.583-4.589l0.726-0.726c0.322-0.33 0.563-0.726 0.707-1.156 0.107-0.32 0.161-0.66 0.155-1.005-0.006-0.335-0.069-0.672-0.194-1.006-0.289-0.753-0.518-1.644-0.644-2.595-0.051-0.353-0.163-0.685-0.324-0.987-0.166-0.308-0.383-0.585-0.64-0.817-0.274-0.247-0.594-0.444-0.946-0.577-0.34-0.129-0.709-0.198-1.081-0.194h-2.996c-0.088 0-0.182 0.004-0.273 0.012-0.403 0.036-0.782 0.152-1.122 0.33-0.353 0.185-0.661 0.437-0.911 0.736s-0.442 0.649-0.561 1.029c-0.114 0.367-0.16 0.76-0.123 1.17 0.3 3.076 1.365 6.243 3.216 9.102 1.502 2.413 3.648 4.623 6.298 6.306 2.568 1.697 5.684 2.862 9.086 3.231 0.092 0.009 0.191 0.013 0.288 0.013 0.405-0.002 0.792-0.084 1.147-0.232 0.367-0.154 0.696-0.378 0.971-0.655s0.496-0.608 0.647-0.976c0.146-0.355 0.225-0.744 0.223-1.144zM21 16.92v3c0.001 0.141-0.026 0.27-0.074 0.387-0.050 0.122-0.124 0.233-0.216 0.326s-0.203 0.168-0.324 0.219c-0.116 0.049-0.245 0.076-0.382 0.077-0.036 0-0.068-0.002-0.088-0.004-3.060-0.333-5.873-1.388-8.174-2.909-2.428-1.543-4.359-3.538-5.702-5.694-1.697-2.62-2.655-5.481-2.924-8.238-0.012-0.13 0.004-0.26 0.041-0.38 0.039-0.127 0.103-0.244 0.187-0.345s0.187-0.185 0.304-0.246c0.112-0.058 0.237-0.097 0.374-0.109 0.034-0.003 0.064-0.004 0.084-0.004h3.004c0.14-0.001 0.261 0.022 0.373 0.064 0.116 0.044 0.222 0.109 0.314 0.192 0.086 0.078 0.159 0.171 0.215 0.275 0.054 0.101 0.092 0.213 0.109 0.333 0.141 1.072 0.408 2.118 0.756 3.025 0.039 0.105 0.060 0.216 0.061 0.325 0.002 0.113-0.016 0.225-0.052 0.333-0.049 0.145-0.131 0.281-0.242 0.395l-1.261 1.261c-0.324 0.324-0.379 0.814-0.162 1.201 1.584 2.785 3.839 4.957 6.381 6.378 0.397 0.222 0.882 0.144 1.195-0.166l1.27-1.27c0.081-0.080 0.174-0.144 0.273-0.19 0.102-0.048 0.212-0.078 0.325-0.089 0.152-0.015 0.31 0.005 0.459 0.060 1.022 0.381 2.070 0.636 3.034 0.754 0.111 0.016 0.229 0.057 0.333 0.116 0.108 0.061 0.204 0.143 0.283 0.239 0.075 0.092 0.133 0.197 0.172 0.31 0.038 0.11 0.057 0.228 0.054 0.372z"></path>
		</symbol>

		<symbol id="icon_fax" viewBox="0 0 28 32">
			<title>fax</title>
			<path class="path1" d="M23.908 11.897h-0.652v-9.241c0-0.97-0.79-1.758-1.757-1.758h-14.552c-0.969 0-1.757 0.788-1.757 1.758v9.24h-0.65c-1.983 0-3.609 1.698-3.609 3.776v5.251c0 2.079 1.626 3.777 3.609 3.777h19.368c1.981 0 3.606-1.698 3.606-3.777v-5.25c0-2.079-1.624-3.777-3.606-3.777zM6.406 2.656c0-0.298 0.243-0.543 0.541-0.543h14.552c0.296 0 0.539 0.245 0.539 0.543v9.24h-15.632v-9.24zM22.771 20.486c-0.058 0.041-0.112 0.094-0.162 0.165-0.053 0.068-0.104 0.127-0.152 0.177-0.042 0.042-0.107 0.101-0.194 0.18-0.088 0.077-0.174 0.16-0.261 0.236-0.086 0.077-0.177 0.148-0.268 0.213-0.090 0.061-0.162 0.103-0.218 0.121-0.056 0.009-0.126 0.006-0.204-0.018-0.077-0.020-0.159-0.050-0.238-0.088s-0.163-0.086-0.248-0.127c-0.080-0.047-0.15-0.083-0.21-0.106-0.097-0.053-0.284-0.136-0.552-0.259-0.27-0.127-0.546-0.254-0.826-0.389-0.281-0.129-0.544-0.256-0.78-0.374-0.238-0.118-0.376-0.201-0.419-0.241-0.154-0.15-0.243-0.343-0.27-0.572-0.027-0.231-0.034-0.46-0.020-0.693 0.009-0.233 0.020-0.452 0.026-0.649 0.006-0.201-0.037-0.35-0.128-0.439-0.083-0.083-0.217-0.15-0.406-0.201-0.19-0.052-0.339-0.090-0.45-0.123-0.951-0.255-1.857-0.378-2.717-0.369-0.86 0.003-1.773 0.138-2.734 0.404-0.115 0.030-0.268 0.068-0.453 0.109-0.187 0.042-0.327 0.11-0.422 0.207-0.096 0.094-0.137 0.266-0.126 0.522 0.006 0.257 0.030 0.525 0.063 0.814 0.034 0.283 0.051 0.557 0.055 0.823 0 0.262-0.056 0.451-0.165 0.56-0.041 0.042-0.194 0.103-0.461 0.183-0.265 0.080-0.555 0.16-0.866 0.244-0.313 0.086-0.621 0.162-0.923 0.233-0.303 0.071-0.504 0.122-0.603 0.157-0.107 0.023-0.255 0.065-0.445 0.127-0.187 0.059-0.344 0.064-0.472 0.029-0.030-0.018-0.081-0.062-0.152-0.133-0.066-0.065-0.136-0.149-0.207-0.244-0.076-0.101-0.148-0.203-0.218-0.318-0.074-0.115-0.137-0.227-0.193-0.342-0.059-0.112-0.103-0.213-0.14-0.301-0.088-0.236-0.111-0.504-0.072-0.811 0.034-0.309 0.113-0.613 0.23-0.917 0.118-0.306 0.261-0.598 0.427-0.875 0.164-0.278 0.33-0.498 0.49-0.658 0.332-0.333 0.702-0.596 1.11-0.796 0.412-0.198 0.824-0.387 1.244-0.563 0.694-0.324 1.422-0.561 2.178-0.714s1.516-0.23 2.284-0.244c0.765-0.012 1.535 0.032 2.307 0.133s1.518 0.251 2.235 0.448c0.273 0.065 0.577 0.153 0.919 0.266 0.339 0.116 0.676 0.236 1.008 0.378 0.338 0.138 0.655 0.295 0.953 0.462 0.293 0.168 0.543 0.354 0.747 0.555 0.228 0.23 0.433 0.495 0.62 0.804 0.186 0.306 0.334 0.631 0.444 0.973 0.106 0.345 0.168 0.691 0.185 1.041 0.017 0.343-0.033 0.681-0.151 1.006z"></path>
			<path class="path2" d="M20.35 3.683h-12.19c-0.336 0-0.607 0.277-0.607 0.607 0 0.339 0.271 0.61 0.607 0.61h12.19c0.336 0 0.608-0.271 0.608-0.61 0-0.331-0.273-0.607-0.608-0.607z"></path>
			<path class="path3" d="M20.35 6.251h-12.19c-0.336 0-0.607 0.274-0.607 0.61s0.271 0.607 0.607 0.607h12.19c0.336 0 0.608-0.27 0.608-0.607s-0.273-0.61-0.608-0.61z"></path>
			<path class="path4" d="M20.35 8.821h-12.19c-0.336 0-0.607 0.271-0.607 0.608s0.271 0.608 0.607 0.608h12.19c0.336 0 0.608-0.271 0.608-0.608s-0.273-0.608-0.608-0.608z"></path>
		</symbol>
		<symbol id="icon-mail" viewBox="0 0 28 28">
			<title>email</title>
			<path d="M28 11.094v12.406c0 1.375-1.125 2.5-2.5 2.5h-23c-1.375 0-2.5-1.125-2.5-2.5v-12.406c0.469 0.516 1 0.969 1.578 1.359 2.594 1.766 5.219 3.531 7.766 5.391 1.313 0.969 2.938 2.156 4.641 2.156h0.031c1.703 0 3.328-1.188 4.641-2.156 2.547-1.844 5.172-3.625 7.781-5.391 0.562-0.391 1.094-0.844 1.563-1.359zM28 6.5c0 1.75-1.297 3.328-2.672 4.281-2.438 1.687-4.891 3.375-7.313 5.078-1.016 0.703-2.734 2.141-4 2.141h-0.031c-1.266 0-2.984-1.437-4-2.141-2.422-1.703-4.875-3.391-7.297-5.078-1.109-0.75-2.688-2.516-2.688-3.938 0-1.531 0.828-2.844 2.5-2.844h23c1.359 0 2.5 1.125 2.5 2.5z"></path>
		</symbol>
		<symbol id="icon_google_plus" viewBox="0 0 20 20">
			<title>google</title>
			<path d="M1.989 5.589c0 1.494 0.499 2.572 1.482 3.205 0.806 0.52 1.74 0.598 2.226 0.598 0.118 0 0.213-0.006 0.279-0.010 0 0-0.154 1.004 0.59 1.996h-0.034c-1.289 0-5.493 0.269-5.493 3.727 0 3.516 3.861 3.695 4.636 3.695 0.061 0 0.097-0.002 0.097-0.002 0.008 0 0.063 0.002 0.158 0.002 0.497 0 1.782-0.062 2.975-0.643 1.548-0.75 2.333-2.059 2.333-3.885 0-1.764-1.196-2.814-2.069-3.582-0.533-0.469-0.994-0.873-0.994-1.266 0-0.4 0.337-0.701 0.762-1.082 0.689-0.615 1.339-1.492 1.339-3.15 0-1.457-0.189-2.436-1.354-3.057 0.121-0.062 0.551-0.107 0.763-0.137 0.631-0.086 1.554-0.184 1.554-0.699v-0.099h-4.599c-0.046 0.002-4.651 0.172-4.651 4.389zM9.413 14.602c0.088 1.406-1.115 2.443-2.922 2.574-1.835 0.135-3.345-0.691-3.433-2.096-0.043-0.676 0.254-1.336 0.835-1.863 0.589-0.533 1.398-0.863 2.278-0.928 0.104-0.006 0.207-0.012 0.31-0.012 1.699 0.001 2.849 0.999 2.932 2.325zM8.212 4.626c0.451 1.588-0.23 3.246-1.316 3.553-0.125 0.035-0.253 0.052-0.384 0.052-0.994 0-1.979-1.006-2.345-2.393-0.204-0.776-0.187-1.458 0.047-2.112 0.229-0.645 0.643-1.078 1.163-1.225 0.125-0.035 0.254-0.053 0.385-0.053 1.2 0 1.972 0.498 2.45 2.178zM16 8v-3h-2v3h-3v2h3v3h2v-3h3v-2h-3z"></path>
		</symbol>
		<symbol id="icon_location" viewBox="0 0 32 32">
			<title>location</title>
			<path class="path1" d="M16 0c-5.523 0-10 4.477-10 10 0 10 10 22 10 22s10-12 10-22c0-5.523-4.477-10-10-10zM16 16c-3.314 0-6-2.686-6-6s2.686-6 6-6 6 2.686 6 6-2.686 6-6 6z"></path>
		</symbol>
		<symbol id="icon-location2" viewBox="0 0 32 32">
			<title>location</title>
			<path d="M16 0c-5.523 0-10 4.477-10 10 0 10 10 22 10 22s10-12 10-22c0-5.523-4.477-10-10-10zM16 16c-3.314 0-6-2.686-6-6s2.686-6 6-6 6 2.686 6 6-2.686 6-6 6z"></path>
		</symbol>
		<symbol id="icon_search" viewBox="0 0 30 32">
			<title>search</title>
			<path class="path1" d="M20.571 14.857q0-3.304-2.348-5.652t-5.652-2.348-5.652 2.348-2.348 5.652 2.348 5.652 5.652 2.348 5.652-2.348 2.348-5.652zM29.714 29.714q0 0.929-0.679 1.607t-1.607 0.679q-0.964 0-1.607-0.679l-6.125-6.107q-3.196 2.214-7.125 2.214-2.554 0-4.884-0.991t-4.018-2.679-2.679-4.018-0.991-4.884 0.991-4.884 2.679-4.018 4.018-2.679 4.884-0.991 4.884 0.991 4.018 2.679 2.679 4.018 0.991 4.884q0 3.929-2.214 7.125l6.125 6.125q0.661 0.661 0.661 1.607z"></path>
		</symbol>

		<symbol id="icon-user" viewBox="0 0 32 32">
			<title>user</title>
			<path d="M18 22.082v-1.649c2.203-1.241 4-4.337 4-7.432 0-4.971 0-9-6-9s-6 4.029-6 9c0 3.096 1.797 6.191 4 7.432v1.649c-6.784 0.555-12 3.888-12 7.918h28c0-4.030-5.216-7.364-12-7.918z"></path>
		</symbol>

		<symbol id="icon-earth" viewBox="0 0 32 32">
			<title>earth</title>
			<path d="M16 0c-8.837 0-16 7.163-16 16s7.163 16 16 16 16-7.163 16-16-7.163-16-16-16zM16 30c-1.967 0-3.84-0.407-5.538-1.139l7.286-8.197c0.163-0.183 0.253-0.419 0.253-0.664v-3c0-0.552-0.448-1-1-1-3.531 0-7.256-3.671-7.293-3.707-0.188-0.188-0.442-0.293-0.707-0.293h-4c-0.552 0-1 0.448-1 1v6c0 0.379 0.214 0.725 0.553 0.894l3.447 1.724v5.871c-3.627-2.53-6-6.732-6-11.489 0-2.147 0.484-4.181 1.348-6h3.652c0.265 0 0.52-0.105 0.707-0.293l4-4c0.188-0.188 0.293-0.442 0.293-0.707v-2.419c1.268-0.377 2.61-0.581 4-0.581 2.2 0 4.281 0.508 6.134 1.412-0.13 0.109-0.256 0.224-0.376 0.345-1.133 1.133-1.757 2.64-1.757 4.243s0.624 3.109 1.757 4.243c1.139 1.139 2.663 1.758 4.239 1.758 0.099 0 0.198-0.002 0.297-0.007 0.432 1.619 1.211 5.833-0.263 11.635-0.014 0.055-0.022 0.109-0.026 0.163-2.541 2.596-6.084 4.208-10.004 4.208z"></path>
		</symbol>

		<symbol id="icon-share2" viewBox="0 0 32 32">
			<title>share2</title>
			<path d="M27 22c-1.411 0-2.685 0.586-3.594 1.526l-13.469-6.734c0.041-0.258 0.063-0.522 0.063-0.791s-0.022-0.534-0.063-0.791l13.469-6.734c0.909 0.94 2.183 1.526 3.594 1.526 2.761 0 5-2.239 5-5s-2.239-5-5-5-5 2.239-5 5c0 0.269 0.022 0.534 0.063 0.791l-13.469 6.734c-0.909-0.94-2.183-1.526-3.594-1.526-2.761 0-5 2.239-5 5s2.239 5 5 5c1.411 0 2.685-0.586 3.594-1.526l13.469 6.734c-0.041 0.258-0.063 0.522-0.063 0.791 0 2.761 2.239 5 5 5s5-2.239 5-5c0-2.761-2.239-5-5-5z"></path>
		</symbol>


		<symbol id="icon-home" viewBox="0 0 32 32">
			<title>home</title>
			<path d="M32 18.451l-16-12.42-16 12.42v-5.064l16-12.42 16 12.42zM28 18v12h-8v-8h-8v8h-8v-12l12-9z"></path>
		</symbol>

		<symbol id="icon-truck" viewBox="0 0 32 32">
			<title>truck</title>
			<path d="M32 18l-4-8h-6v-4c0-1.1-0.9-2-2-2h-18c-1.1 0-2 0.9-2 2v16l2 2h2.536c-0.341 0.588-0.536 1.271-0.536 2 0 2.209 1.791 4 4 4s4-1.791 4-4c0-0.729-0.196-1.412-0.536-2h11.073c-0.341 0.588-0.537 1.271-0.537 2 0 2.209 1.791 4 4 4s4-1.791 4-4c0-0.729-0.196-1.412-0.537-2h2.537v-6zM22 18v-6h4.146l3 6h-7.146z"></path>
		</symbol>

		<symbol id="icon-gift" viewBox="0 0 32 32">
			<title>gift</title>
			<path d="M24.11 10c0.566-0.402 1.11-0.851 1.608-1.348 1.044-1.044 1.742-2.328 1.966-3.616 0.246-1.412-0.115-2.723-0.988-3.597-0.697-0.697-1.641-1.065-2.73-1.065-1.551 0-3.185 0.744-4.483 2.043-2.077 2.077-3.288 4.945-3.94 6.991-0.482-2.056-1.444-4.833-3.313-6.702-1.003-1.003-2.285-1.518-3.495-1.518-0.989 0-1.931 0.344-2.633 1.046-1.562 1.562-1.351 4.306 0.471 6.128 0.65 0.65 1.409 1.189 2.21 1.638h-6.782v8h2v14h24v-14h2v-8h-5.89zM21.073 4.007c0.866-0.866 1.948-1.384 2.892-1.384 0.334 0 0.803 0.070 1.139 0.406 0.813 0.813 0.357 2.697-0.977 4.031-1.373 1.373-3.221 2.318-4.826 2.939h-1.584c0.58-1.798 1.627-4.264 3.356-5.993zM7.31 5.028c-0.022-0.285-0.002-0.82 0.381-1.203 0.32-0.32 0.743-0.387 1.042-0.387v0c0.664 0 1.358 0.313 1.904 0.859 1.059 1.058 1.93 2.743 2.521 4.871 0.016 0.057 0.031 0.115 0.047 0.171-0.057-0.015-0.114-0.031-0.171-0.047-2.128-0.591-3.813-1.462-4.871-2.521-0.495-0.495-0.805-1.13-0.853-1.743zM14 30h-8v-13h8v13zM14 16h-10v-4h10v4zM26 30h-8v-13h8v13zM28 16h-10v-4h10v4z"></path>
		</symbol>

		<symbol id="icon-newspaper" viewBox="0 0 32 32">
			<title>newspaper</title>
			<path d="M28 8v-4h-28v22c0 1.105 0.895 2 2 2h27c1.657 0 3-1.343 3-3v-17h-4zM26 26h-24v-20h24v20zM4 10h20v2h-20zM16 14h8v2h-8zM16 18h8v2h-8zM16 22h6v2h-6zM4 14h10v10h-10z"></path>
		</symbol>

		<symbol id="icon-list-numbered" viewBox="0 0 32 32">
			<title>list-numbered</title>
			<path d="M12 26h20v4h-20zM12 14h20v4h-20zM12 2h20v4h-20zM6 0v8h-2v-6h-2v-2zM4 16.438v1.563h4v2h-6v-4.563l4-1.875v-1.563h-4v-2h6v4.563zM8 22v10h-6v-2h4v-2h-4v-2h4v-2h-4v-2z"></path>
		</symbol>

		<symbol id="icon-eye" viewBox="0 0 32 32">
			<title>eye</title>
			<path d="M16 6c-6.979 0-13.028 4.064-16 10 2.972 5.936 9.021 10 16 10s13.027-4.064 16-10c-2.972-5.936-9.021-10-16-10zM23.889 11.303c1.88 1.199 3.473 2.805 4.67 4.697-1.197 1.891-2.79 3.498-4.67 4.697-2.362 1.507-5.090 2.303-7.889 2.303s-5.527-0.796-7.889-2.303c-1.88-1.199-3.473-2.805-4.67-4.697 1.197-1.891 2.79-3.498 4.67-4.697 0.122-0.078 0.246-0.154 0.371-0.228-0.311 0.854-0.482 1.776-0.482 2.737 0 4.418 3.582 8 8 8s8-3.582 8-8c0-0.962-0.17-1.883-0.482-2.737 0.124 0.074 0.248 0.15 0.371 0.228v0zM16 13c0 1.657-1.343 3-3 3s-3-1.343-3-3 1.343-3 3-3 3 1.343 3 3z"></path>
		</symbol>

		<symbol id="icon-compass" viewBox="0 0 32 32">
			<title>compass</title>
			<path d="M17 32c-0.072 0-0.144-0.008-0.217-0.024-0.458-0.102-0.783-0.507-0.783-0.976v-15h-15c-0.469 0-0.875-0.326-0.976-0.783s0.129-0.925 0.553-1.123l30-14c0.381-0.178 0.833-0.098 1.13 0.199s0.377 0.749 0.199 1.13l-14 30c-0.167 0.358-0.524 0.577-0.906 0.577zM5.508 14h11.492c0.552 0 1 0.448 1 1v11.492l10.931-23.423-23.423 10.931z"></path>
		</symbol>

		<symbol id="icon-linkedin" viewBox="0 0 32 32">
			<title>linkedin</title>
			<path d="M12 12h5.535v2.837h0.079c0.77-1.381 2.655-2.837 5.464-2.837 5.842 0 6.922 3.637 6.922 8.367v9.633h-5.769v-8.54c0-2.037-0.042-4.657-3.001-4.657-3.005 0-3.463 2.218-3.463 4.509v8.688h-5.767v-18z"></path>
			<path d="M2 12h6v18h-6v-18z"></path>
			<path d="M8 7c0 1.657-1.343 3-3 3s-3-1.343-3-3c0-1.657 1.343-3 3-3s3 1.343 3 3z"></path>
		</symbol>

		<symbol id="icon-linkedin-c" viewBox="0 0 32 32">
			<title>linkedin-c</title>
			<path style="fill:#117bb8;" d="M12 12h5.535v2.837h0.079c0.77-1.381 2.655-2.837 5.464-2.837 5.842 0 6.922 3.637 6.922 8.367v9.633h-5.769v-8.54c0-2.037-0.042-4.657-3.001-4.657-3.005 0-3.463 2.218-3.463 4.509v8.688h-5.767v-18z"></path>
			<path style="fill:#117bb8;" d="M2 12h6v18h-6v-18z"></path>
			<path style="fill:#117bb8;" d="M8 7c0 1.657-1.343 3-3 3s-3-1.343-3-3c0-1.657 1.343-3 3-3s3 1.343 3 3z"></path>
		</symbol>
	</defs>
</svg>